HIERARCHY
ROOT pelvis
{
  OFFSET 0 100 0
  CHANNELS 6 Xposition Yposition Zposition Zrotation Xrotation Yrotation
  JOINT pelvis_right_femur
  {
    OFFSET -10.78128 -3.44521 -0.5502486
    CHANNELS 3 Zrotation Xrotation Yrotation
    JOINT right_femur_tibia
    {
      OFFSET -0.8047443 -44.0398 -0.1307829
      CHANNELS 3 Zrotation Xrotation Yrotation
      JOINT right_tibia_foot
      {
        OFFSET 3.006224 -47.83518 -5
        CHANNELS 3 Zrotation Xrotation Yrotation
        End Site
        {
          OFFSET 0 -5 15
        }
      }
    }
  }
  JOINT pelvis_left_femur
  {
    OFFSET 10.78128 -3.44521 -0.5502486
    CHANNELS 3 Zrotation Xrotation Yrotation
    JOINT left_femur_tibia
    {
      OFFSET 0.8047443 -44.0398 -0.1307829
      CHANNELS 3 Zrotation Xrotation Yrotation
      JOINT left_tibia_foot
      {
        OFFSET -4.370144 -48.10324 -4.275266
        CHANNELS 3 Zrotation Xrotation Yrotation
        End Site
        {
          OFFSET 0 -5 15
        }
      }
    }
  }
  JOINT pelvis_spine1
  {
    OFFSET 0 6.468898 -3.129235
    CHANNELS 3 Zrotation Xrotation Yrotation
    JOINT spine1
    {
      OFFSET 0 23.15396 4.99043
      CHANNELS 3 Zrotation Xrotation Yrotation
      JOINT spine2
      {
        OFFSET 0 20.79997 -5.064912
        CHANNELS 3 Zrotation Xrotation Yrotation
        JOINT neck
        {
          OFFSET 0 14.38658 9.616178
          CHANNELS 3 Zrotation Xrotation Yrotation
          End Site
          {
            OFFSET 0 20 0
          }
        }
      }
      JOINT right_manubrium
      {
        OFFSET -5.722621 16.35077 3.967754
        CHANNELS 3 Zrotation Xrotation Yrotation
        JOINT right_clavicle
        {
          OFFSET -13.16364 1.694482 -4.693211
          CHANNELS 3 Zrotation Xrotation Yrotation
          JOINT right_humerus
          {
            OFFSET -28.5034 -0.3100689 -2.792744
            CHANNELS 3 Zrotation Xrotation Yrotation
            JOINT right_radius
            {
              OFFSET -25.15693 0.02248979 -1.271978
              CHANNELS 3 Zrotation Xrotation Yrotation
              End Site
              {
                OFFSET -15 0 0
              }
            }
          }
        }
      }
      JOINT left_manubrium
      {
        OFFSET 5.722621 16.35077 3.967754
        CHANNELS 3 Zrotation Xrotation Yrotation
        JOINT left_clavicle
        {
          OFFSET 13.16364 1.694482 -4.693211
          CHANNELS 3 Zrotation Xrotation Yrotation
          JOINT left_humerus
          {
            OFFSET 29.39168 -1.063119 -2.237045
            CHANNELS 3 Zrotation Xrotation Yrotation
            JOINT left_radius
            {
              OFFSET 24.59957 -0.9528479 0.9047498
              CHANNELS 3 Zrotation Xrotation Yrotation
              End Site
              {
                OFFSET 15 -0 -0
              }
            }
          }
        }
      }
    }
  }
}
MOTION
Frames: 19
Frame Time: 0.0416666666667
0 103.5113 0 0.1704622 -0.4151852 0.1589104 3.218059 -18.11831 8.575675 -0 41.32288 -0 -7.879041 -14.00949 -3.424804 -6.525695 9.661888 -24.36334 -0 5.679148 -0 2.859696 -19.57846 24.58009 -1.487947 -1.554613 3.486882 2.265061 6.438949 -7.396101 0.9944266 23.83504 7.620392 3.774838 -25.65606 8.893198 4.623066 -18.66761 11.05845 88.30579 37.9173 -21.96059 -0 0 13.03961 -8.404343 9.45356 4.52383 3.923046 -19.53862 -2.298704 -101.2825 40.89295 30.3851 0 0 -22.35209 -9.628335 19.70989 27.62745
0.1805392 103.8205 1.099959 -0.2251289 0.02028307 0.4837982 3.151935 -18.5464 8.652947 -0 43.64449 -0 -8.360437 -13.63998 -3.954975 -6.227825 8.747468 -24.13562 -0 5.705068 -0 -0.1530829 -20.46617 22.90132 -1.449011 -1.570411 3.494871 2.219546 6.438647 -7.378338 1.00138 23.87148 7.652893 3.783839 -25.60359 8.923818 4.569363 -18.68423 11.05608 88.39267 37.93823 -22.04899 -0 0 13.031 -8.617915 9.677625 4.498189 3.926579 -19.59405 -2.350582 -101.3678 40.99967 30.4918 0 0 -22.52961 -9.85448 19.87756 27.88251
0.3324111 103.7302 2.676735 -0.111543 -0.05409934 0.8302604 3.171733 -20.96865 7.424634 -0 38.5551 -0 -7.596426 -12.21593 -3.939896 -6.005795 10.08955 -22.50821 -0 4.867579 -0 -0.0160572 -21.36072 21.98722 -1.362702 -1.392049 3.134693 2.482229 7.131874 -7.970975 1.001962 23.07826 7.758249 3.567279 -25.43982 9.132284 4.87777 -18.00253 11.14125 89.47503 37.19574 -23.55219 -0 0 12.08738 -9.208232 10.96344 4.985935 4.23875 -20.05316 -2.539222 -97.9156 39.31655 26.5708 0 0 -23.58561 -7.928936 18.09213 25.77463
0.4673062 103.2104 4.837588 0.07371532 -0.1512023 1.155793 3.227308 -23.59053 5.988552 -0 32.20279 -0 -6.756304 -10.54537 -3.733155 -5.878481 11.7882 -20.72454 -0 4.3245 -0 0.8578475 -22.04578 21.30472 -1.218496 -1.352658 2.785741 2.699292 7.505351 -8.438219 1.035446 22.6062 7.834956 3.381242 -25.5108 9.392857 4.943785 -17.58942 11.154 90.59972 36.68126 -25.02565 -0 0 11.30723 -9.255051 11.85774 5.011525 4.471493 -20.47314 -2.665034 -96.07736 38.60177 24.35548 0 0 -24.77335 -7.038614 17.33247 24.88811
0.5992687 102.367 7.533054 0.1261975 0.18666 1.46249 3.539491 -26.38183 4.940681 -0 26.17818 -0 -5.89899 -9.369965 -3.503487 -5.797503 13.29424 -19.26036 -0 4.147526 -0 1.658315 -22.58987 20.57807 -1.1667 -1.301067 2.589405 2.871723 7.797238 -8.769373 1.053099 22.18531 7.866804 3.232617 -25.53111 9.539733 5.025744 -17.28215 11.16708 91.20036 36.2505 -25.86077 -0 0 10.81992 -9.358368 12.43056 5.170962 4.645247 -20.72847 -2.710035 -94.49167 37.72588 22.50671 0 0 -25.59224 -6.098406 16.43844 23.88382
0.7410169 101.3173 10.74612 0.02256333 0.860138 1.767652 4.075269 -29.11361 4.151625 -0 20.84993 -0 -5.231105 -8.262243 -3.204829 -5.729929 14.50912 -17.97926 -0 4.700366 -0 2.219744 -22.85703 19.628 -1.158634 -1.274027 2.483333 2.998781 7.951737 -8.967176 1.06203 21.915 7.867281 3.137784 -25.59541 9.617829 5.079093 -17.11719 11.17007 91.48369 35.98666 -26.27698 -0 0 10.56157 -9.286803 12.62526 5.263939 4.752849 -20.84893 -2.691948 -93.56256 37.12118 21.42023 0 0 -26.04095 -5.416979 15.82675 23.14236
0.9015098 100.209 14.47668 -0.2809332 1.871164 2.100435 4.867944 -31.65778 3.641685 -0 16.4863 -0 -4.870819 -7.10165 -2.838342 -5.631121 15.3608 -16.8672 -0 6.273159 -0 2.316181 -22.76363 18.31208 -1.203585 -1.241306 2.480803 3.066789 8.037902 -9.038946 1.055339 21.74653 7.849384 3.099162 -25.61044 9.609114 5.142252 -17.04112 11.17919 91.42345 35.84999 -26.2514 -0 0 10.509 -9.269163 12.58182 5.40895 4.806748 -20.85241 -2.644216 -92.98935 36.56737 20.78218 0 0 -26.10589 -4.839524 15.3105 22.46261
1.084842 99.20805 18.74641 -0.800092 3.091161 2.490318 5.882983 -33.70701 3.381703 -0 13.39685 -0 -4.991744 -5.738532 -2.424677 -5.453199 15.80651 -15.89585 -0 9.257892 -0 1.734816 -22.16284 16.55621 -1.285489 -1.205546 2.558145 3.078427 8.065432 -9.001376 1.035424 21.6826 7.819423 3.113566 -25.57783 9.528044 5.212521 -17.04024 11.19495 91.1001 35.83206 -25.87829 -0 0 10.62125 -9.298922 12.35204 5.579539 4.810783 -20.76331 -2.584145 -92.76155 36.11966 20.56881 0 0 -25.82551 -4.405687 14.93912 21.89939
1.288353 98.48471 23.58862 -1.504254 4.262897 2.943425 7.009935 -34.82577 3.340639 -0 11.87626 -0 -5.708739 -4.180982 -2.047402 -5.148514 15.85768 -15.05872 -0 14.01035 -0 0.3070307 -20.89424 14.43048 -1.40096 -1.159354 2.713706 3.029611 8.057809 -8.863619 1.002492 21.70636 7.781418 3.176396 -25.46415 9.374122 5.295232 -17.09469 11.22097 90.53127 35.9053 -25.18093 -0 0 10.88091 -9.458035 12.01134 5.806483 4.768022 -20.59781 -2.528839 -92.77933 35.72425 20.67394 0 0 -25.23612 -4.096603 14.66093 21.43031
1.501809 98.18257 29.03035 -2.257195 4.923569 3.400855 8.018229 -34.44682 3.412834 -0 12.05094 -0 -6.996223 -2.567891 -1.84666 -4.70241 15.58345 -14.30005 -0 20.78915 -0 -1.878862 -18.79556 12.2525 -1.5419 -1.101483 2.942058 2.919564 8.028069 -8.637437 0.9592556 21.80411 7.738066 3.279017 -25.25399 9.154983 5.385759 -17.19388 11.25731 89.75067 36.0415 -24.20112 -0 0 11.27271 -9.79426 11.62818 6.099503 4.680501 -20.37228 -2.490024 -92.98101 35.36993 21.03342 0 0 -24.40163 -3.926764 14.45073 21.08075
1.707767 98.4074 35.04568 -2.812196 4.521724 3.716852 8.644741 -31.99704 3.468827 -0 13.77768 -0 -8.608481 -1.180548 -1.965731 -4.166256 14.96014 -13.50643 -0 29.65748 -0 -4.335369 -15.79015 10.58238 -1.701074 -1.029565 3.245201 2.74481 7.992039 -8.332411 0.9091253 21.9544 7.692604 3.410351 -24.9256 8.878979 5.476252 -17.32982 11.30376 88.78015 36.20346 -22.9664 -0 0 11.79179 -10.38582 11.2875 6.483721 4.55107 -20.10132 -2.478193 -93.28267 35.02118 21.56689 0 0 -23.40378 -3.903926 14.25594 20.86883
1.880775 99.23123 41.48321 -2.91324 2.721939 3.722448 8.763445 -27.15726 3.45786 -0 16.5277 -0 -10.11973 -0.3849564 -2.433972 -3.65207 13.61496 -12.54207 -0 40.25628 -0 -6.308937 -12.05698 9.998203 -1.869592 -0.943227 3.630499 2.500051 7.96233 -7.954321 0.8571323 22.13312 7.648989 3.557316 -24.46193 8.559591 5.552605 -17.50345 11.35867 87.6358 36.35199 -21.49476 -0 0 12.44745 -11.31778 11.07874 6.98802 4.38346 -19.79481 -2.499071 -93.60915 34.64454 22.21155 0 0 -22.335 -4.041206 14.02294 20.82162
1.988481 100.6492 48.02562 -2.481038 -0.2275033 3.358567 8.472174 -20.27898 3.43319 -0 19.20203 -0 -11.0606 -0.5503914 -3.081019 -3.244634 10.79559 -11.31758 -0 51.26575 -0 -7.238092 -8.205919 10.71209 -2.03835 -0.8447809 4.114599 2.177626 7.945944 -7.500411 0.8100658 22.31381 7.611121 3.705697 -23.85335 8.215339 5.594747 -17.73026 11.41895 86.31404 36.44933 -19.77527 -0 0 13.27496 -12.67638 11.08348 7.648721 4.183113 -19.45162 -2.548896 -93.90416 34.19983 22.93679 0 0 -21.27924 -4.343512 13.7006 20.95648
2.01034 102.4624 54.29061 -1.705853 -3.435773 2.716721 7.984674 -12.60911 3.40739 -0 20.27 -0 -11.10772 -1.864013 -3.596922 -2.87933 5.920192 -9.824455 -0 60.08679 -0 -7.113974 -5.181415 12.34453 -2.196067 -0.7429079 4.718594 1.77295 7.93927 -6.962095 0.7777415 22.46721 7.582007 3.837994 -23.11355 7.876035 5.575041 -18.04398 11.47841 84.80076 36.46183 -17.77808 -0 0 14.33502 -14.51155 11.3591 8.497429 3.960596 -19.05861 -2.607808 -94.14616 33.64821 23.75811 0 0 -20.31054 -4.795626 13.25901 21.26885
1.973304 104.2549 60.06765 -0.9202911 -5.878594 1.925238 7.480601 -5.731815 3.246863 -0 18.73438 -0 -10.3041 -4.079539 -3.71415 -2.351816 -0.6590154 -8.125507 -0 63.90682 -0 -6.346368 -3.7024 14.14905 -2.326109 -0.6535644 5.452715 1.293865 7.930802 -6.338067 0.7732648 22.5579 7.564815 3.930666 -22.29211 7.58907 5.46132 -18.48523 11.52681 83.10806 36.35916 -15.50208 -0 0 15.68447 -16.79999 11.93412 9.544797 3.737516 -18.60178 -2.640788 -94.33394 32.95411 24.70534 0 0 -19.50887 -5.34318 12.69923 21.712
1.954606 105.5985 65.42772 -0.3776663 -7.08558 1.063417 7.05348 -0.4807346 2.809289 -0 15.10941 -0 -9.122781 -6.607961 -3.372431 -1.498701 -7.717522 -6.355864 -0 61.70947 -0 -5.365001 -3.678638 15.53554 -2.407489 -0.5937708 6.295094 0.7673601 7.91139 -5.649607 0.8092652 22.55082 7.564542 3.958879 -21.46871 7.412085 5.230958 -19.07201 11.55223 81.31628 36.12077 -13.0331 -0 0 17.32067 -19.42475 12.80089 10.76462 3.547283 -18.0841 -2.612503 -94.46141 32.09243 25.7651 0 0 -18.95214 -5.88714 12.0579 22.18669
2.033233 106.2665 70.57461 -0.1525964 -7.267976 0.1866096 6.712942 3.4257 2.162411 -0 11.047 -0 -8.130886 -9.05577 -2.763701 -0.3387728 -14.03889 -4.740488 -0 54.75463 -0 -4.432506 -4.348112 16.37106 -2.425852 -0.5697888 7.184541 0.2351404 7.883568 -4.941184 0.8900091 22.43213 7.584984 3.911223 -20.72194 7.382821 4.891877 -19.7728 11.54737 79.56607 35.75002 -10.54163 -0 0 19.1451 -22.1882 13.89115 12.09034 3.422128 -17.53143 -2.508673 -94.51486 31.06273 26.85653 0 0 -18.65397 -6.309828 11.39794 22.56045
2.249534 106.2569 75.68099 -0.1875551 -6.924216 -0.6536972 6.398233 6.756897 1.573269 -0 8.141092 -0 -7.57552 -11.44919 -2.199574 0.9412915 -18.96745 -3.542836 -0 45.23281 -0 -3.686032 -4.928382 16.85259 -2.386146 -0.5715403 8.037271 -0.2580752 7.859857 -4.266765 1.006097 22.22441 7.620664 3.799384 -20.09963 7.489407 4.489487 -20.51014 11.51475 78.00236 35.27719 -8.218413 -0 0 20.98507 -24.84584 15.05982 13.42268 3.373041 -16.98086 -2.344512 -94.49426 29.91024 27.86811 0 0 -18.52047 -6.527665 10.77875 22.72649
2.603795 105.7052 80.8629 -0.3701381 -6.477769 -1.425949 6.009037 10.07396 1.28936 -0 7.208139 -0 -7.359922 -13.84455 -1.895429 2.081372 -22.34353 -2.954889 -0 35.09822 -0 -3.205052 -5.047363 17.24106 -2.313111 -0.5791406 8.774009 -0.6739147 7.85451 -3.677223 1.137038 21.97634 7.653295 3.650943 -19.61488 7.671789 4.089508 -21.19174 11.46586 76.72935 34.74383 -6.219519 -0 0 22.65269 -27.15176 16.11803 14.64605 3.381648 -16.46786 -2.154809 -94.41941 28.73213 28.70532 0 0 -18.40088 -6.529491 10.22028 22.66096
